# xmcd
#
# Track frame offsets:
#  150
#  29422
#  54177
#  73285
#  89147
#  113022
#  147849
#  167601
#
# Disc length: 2405 seconds
#
# Revision: 0
# Processed by: cddbd v1.5.2PL0 Copyright (c) Steve Scherf et al.
# Submitted via: Collectorz.com_Music_Collector 6.11
#
DISCID=6d096308
DTITLE=Breakout - 70 A
DYEAR=1970
DGENRE=Blues
TTITLE0=Skąd Taki Duży Deszcz
TTITLE1=Przemijanie
TTITLE2=Dziwny Weekend
TTITLE3=Taką Drogę
TTITLE4=Zapraszamy Na Korridę
TTITLE5=Piękno
TTITLE6=Nie Znasz Jeszcze Życia
TTITLE7=Przestroga
EXTD=
EXTT0=
EXTT1=
EXTT2=
EXTT3=
EXTT4=
EXTT5=
EXTT6=
EXTT7=
PLAYORDER=
